<svg width="470" height="15" viewBox="0 0 470 15" fill="none" xmlns="http://www.w3.org/2000/svg">
<path d="M5.08084 13.8331C5.28273 14.0733 5.59369 14.0517 5.77539 13.7848C5.95709 13.518 5.94073 13.107 5.73883 12.8669L1.77342 8.15L29.5082 8.15C29.7798 8.15 30 7.85898 30 7.5C30 7.14102 29.7798 6.85 29.5082 6.85L1.77342 6.85L5.73883 2.13315C5.94073 1.893 5.95709 1.48201 5.77539 1.21518C5.59369 0.948347 5.28273 0.926717 5.08084 1.16687L0.162804 7.01686C0.0591755 7.14013 0 7.31573 0 7.5C0 7.68427 0.0591755 7.85987 0.162804 7.98314L5.08084 13.8331Z" fill="#D7D7D7"/>
<circle cx="215" cy="7.5" r="5" fill="#183280"/>
<circle cx="235" cy="7.5" r="5" fill="#D7D7D7"/>
<circle cx="255" cy="7.5" r="5" fill="#D7D7D7"/>
<path d="M464.919 1.16686C464.717 0.926716 464.406 0.948347 464.225 1.21518C464.043 1.48201 464.059 1.893 464.261 2.13315L468.227 6.85H440.492C440.22 6.85 440 7.14102 440 7.5C440 7.85898 440.22 8.15 440.492 8.15H468.227L464.261 12.8669C464.059 13.107 464.043 13.518 464.225 13.7848C464.406 14.0517 464.717 14.0733 464.919 13.8331L469.837 7.98314C469.941 7.85987 470 7.68427 470 7.5C470 7.31573 469.941 7.14013 469.837 7.01686L464.919 1.16686Z" fill="#D7D7D7"/>
</svg>
