<svg width="167" height="41" viewBox="0 0 167 41" fill="none" xmlns="http://www.w3.org/2000/svg">
<path d="M13.233 7.72727C13.233 9.2803 12.9489 10.6155 12.3807 11.733C11.8125 12.8456 11.0336 13.7027 10.044 14.304C9.05919 14.9006 7.93939 15.1989 6.68466 15.1989C5.42519 15.1989 4.30066 14.9006 3.31108 14.304C2.32623 13.7027 1.54972 12.8433 0.981534 11.7259C0.413352 10.6084 0.129261 9.27557 0.129261 7.72727C0.129261 6.17424 0.413352 4.84138 0.981534 3.72869C1.54972 2.61127 2.32623 1.75426 3.31108 1.15767C4.30066 0.556344 5.42519 0.255681 6.68466 0.255681C7.93939 0.255681 9.05919 0.556344 10.044 1.15767C11.0336 1.75426 11.8125 2.61127 12.3807 3.72869C12.9489 4.84138 13.233 6.17424 13.233 7.72727ZM11.0597 7.72727C11.0597 6.54356 10.8679 5.54687 10.4844 4.73722C10.1056 3.92282 9.58475 3.30729 8.92188 2.89062C8.26373 2.46922 7.51799 2.25852 6.68466 2.25852C5.84659 2.25852 5.09848 2.46922 4.44034 2.89062C3.7822 3.30729 3.26136 3.92282 2.87784 4.73722C2.49905 5.54687 2.30966 6.54356 2.30966 7.72727C2.30966 8.91098 2.49905 9.91004 2.87784 10.7244C3.26136 11.5341 3.7822 12.1496 4.44034 12.571C5.09848 12.9877 5.84659 13.196 6.68466 13.196C7.51799 13.196 8.26373 12.9877 8.92188 12.571C9.58475 12.1496 10.1056 11.5341 10.4844 10.7244C10.8679 9.91004 11.0597 8.91098 11.0597 7.72727ZM14.6268 2.34375V0.454545H25.8839V2.34375H21.3455V15H19.158V2.34375H14.6268ZM40.3814 7.72727C40.3814 9.2803 40.0973 10.6155 39.5291 11.733C38.9609 12.8456 38.1821 13.7027 37.1925 14.304C36.2076 14.9006 35.0878 15.1989 33.8331 15.1989C32.5736 15.1989 31.4491 14.9006 30.4595 14.304C29.4747 13.7027 28.6982 12.8433 28.13 11.7259C27.5618 10.6084 27.2777 9.27557 27.2777 7.72727C27.2777 6.17424 27.5618 4.84138 28.13 3.72869C28.6982 2.61127 29.4747 1.75426 30.4595 1.15767C31.4491 0.556344 32.5736 0.255681 33.8331 0.255681C35.0878 0.255681 36.2076 0.556344 37.1925 1.15767C38.1821 1.75426 38.9609 2.61127 39.5291 3.72869C40.0973 4.84138 40.3814 6.17424 40.3814 7.72727ZM38.2081 7.72727C38.2081 6.54356 38.0163 5.54687 37.6328 4.73722C37.254 3.92282 36.7332 3.30729 36.0703 2.89062C35.4122 2.46922 34.6664 2.25852 33.8331 2.25852C32.995 2.25852 32.2469 2.46922 31.5888 2.89062C30.9306 3.30729 30.4098 3.92282 30.0263 4.73722C29.6475 5.54687 29.4581 6.54356 29.4581 7.72727C29.4581 8.91098 29.6475 9.91004 30.0263 10.7244C30.4098 11.5341 30.9306 12.1496 31.5888 12.571C32.2469 12.9877 32.995 13.196 33.8331 13.196C34.6664 13.196 35.4122 12.9877 36.0703 12.571C36.7332 12.1496 37.254 11.5341 37.6328 10.7244C38.0163 9.91004 38.2081 8.91098 38.2081 7.72727ZM54.4883 0.454545V15H52.3008V2.32955H45.4542V15H43.2667V0.454545H54.4883ZM57.8441 0.454545H60.0174V11.1364H60.1523L67.5529 0.454545H69.5842V15H67.3896V4.33239H67.2546L59.8683 15H57.8441V0.454545ZM72.0682 2.34375V0.454545H83.3253V2.34375H78.7869V15H76.5994V2.34375H72.0682ZM85.8129 15V0.454545H94.9322V2.34375H88.0075V6.77557H94.4563V8.65767H88.0075V13.1108H95.0174V15H85.8129ZM96.7628 15V13.0966L97.1889 13.0824C97.7666 13.0682 98.2211 12.8717 98.5526 12.4929C98.8887 12.1141 99.1326 11.5033 99.2841 10.6605C99.4403 9.81771 99.5445 8.69318 99.5966 7.28693L99.8452 0.454545H109.043V15H106.876V2.31534H101.912L101.685 7.86932C101.623 9.42708 101.467 10.7363 101.216 11.7969C100.965 12.8527 100.539 13.6506 99.9375 14.1903C99.3409 14.7301 98.491 15 97.3878 15H96.7628ZM113.78 6.32102H117.7C118.78 6.32102 119.698 6.49621 120.456 6.84659C121.214 7.19697 121.791 7.69176 122.189 8.33097C122.591 8.97017 122.79 9.72301 122.786 10.5895C122.79 11.456 122.591 12.2206 122.189 12.8835C121.791 13.5464 121.214 14.0649 120.456 14.4389C119.698 14.813 118.78 15 117.7 15H112.253V0.454545H114.455V13.1534H117.7C118.33 13.1534 118.86 13.0303 119.291 12.7841C119.727 12.5379 120.056 12.2183 120.278 11.8253C120.506 11.4323 120.619 11.0109 120.619 10.5611C120.619 9.90767 120.368 9.34659 119.866 8.87784C119.365 8.40436 118.643 8.16761 117.7 8.16761H113.78V6.32102ZM125.461 15V0.454545H127.656V6.77557H134.907V0.454545H137.109V15H134.907V8.65767H127.656V15H125.461ZM152.94 7.72727C152.94 9.2803 152.656 10.6155 152.088 11.733C151.52 12.8456 150.741 13.7027 149.751 14.304C148.766 14.9006 147.646 15.1989 146.392 15.1989C145.132 15.1989 144.008 14.9006 143.018 14.304C142.033 13.7027 141.257 12.8433 140.689 11.7259C140.12 10.6084 139.836 9.27557 139.836 7.72727C139.836 6.17424 140.12 4.84138 140.689 3.72869C141.257 2.61127 142.033 1.75426 143.018 1.15767C144.008 0.556344 145.132 0.255681 146.392 0.255681C147.646 0.255681 148.766 0.556344 149.751 1.15767C150.741 1.75426 151.52 2.61127 152.088 3.72869C152.656 4.84138 152.94 6.17424 152.94 7.72727ZM150.767 7.72727C150.767 6.54356 150.575 5.54687 150.191 4.73722C149.813 3.92282 149.292 3.30729 148.629 2.89062C147.971 2.46922 147.225 2.25852 146.392 2.25852C145.554 2.25852 144.806 2.46922 144.147 2.89062C143.489 3.30729 142.968 3.92282 142.585 4.73722C142.206 5.54687 142.017 6.54356 142.017 7.72727C142.017 8.91098 142.206 9.91004 142.585 10.7244C142.968 11.5341 143.489 12.1496 144.147 12.571C144.806 12.9877 145.554 13.196 146.392 13.196C147.225 13.196 147.971 12.9877 148.629 12.571C149.292 12.1496 149.813 11.5341 150.191 10.7244C150.575 9.91004 150.767 8.91098 150.767 7.72727ZM155.676 15V0.454545H164.795V2.34375H157.871V6.77557H164.32V8.65767H157.871V13.1108H164.881V15H155.676ZM13.233 29.7273C13.233 31.2803 12.9489 32.6155 12.3807 33.733C11.8125 34.8456 11.0336 35.7027 10.044 36.304C9.05919 36.9006 7.93939 37.1989 6.68466 37.1989C5.42519 37.1989 4.30066 36.9006 3.31108 36.304C2.32623 35.7027 1.54972 34.8433 0.981534 33.7259C0.413352 32.6084 0.129261 31.2756 0.129261 29.7273C0.129261 28.1742 0.413352 26.8414 0.981534 25.7287C1.54972 24.6113 2.32623 23.7543 3.31108 23.1577C4.30066 22.5563 5.42519 22.2557 6.68466 22.2557C7.93939 22.2557 9.05919 22.5563 10.044 23.1577C11.0336 23.7543 11.8125 24.6113 12.3807 25.7287C12.9489 26.8414 13.233 28.1742 13.233 29.7273ZM11.0597 29.7273C11.0597 28.5436 10.8679 27.5469 10.4844 26.7372C10.1056 25.9228 9.58475 25.3073 8.92188 24.8906C8.26373 24.4692 7.51799 24.2585 6.68466 24.2585C5.84659 24.2585 5.09848 24.4692 4.44034 24.8906C3.7822 25.3073 3.26136 25.9228 2.87784 26.7372C2.49905 27.5469 2.30966 28.5436 2.30966 29.7273C2.30966 30.911 2.49905 31.91 2.87784 32.7244C3.26136 33.5341 3.7822 34.1496 4.44034 34.571C5.09848 34.9877 5.84659 35.196 6.68466 35.196C7.51799 35.196 8.26373 34.9877 8.92188 34.571C9.58475 34.1496 10.1056 33.5341 10.4844 32.7244C10.8679 31.91 11.0597 30.911 11.0597 29.7273ZM15.9691 37V22.4545H25.0387V24.3438H18.1637V28.321H21.4165C22.4961 28.321 23.4123 28.4962 24.1651 28.8466C24.9227 29.197 25.5004 29.6918 25.8981 30.331C26.3005 30.9702 26.5018 31.723 26.5018 32.5895C26.5018 33.456 26.3005 34.2206 25.8981 34.8835C25.5004 35.5464 24.9227 36.0649 24.1651 36.4389C23.4123 36.813 22.4961 37 21.4165 37H15.9691ZM18.1637 35.1534H21.4165C22.0415 35.1534 22.5695 35.0303 23.0004 34.7841C23.436 34.5379 23.765 34.2183 23.9876 33.8253C24.2148 33.4323 24.3285 33.0109 24.3285 32.5611C24.3285 31.9077 24.0775 31.3466 23.5756 30.8778C23.0737 30.4044 22.354 30.1676 21.4165 30.1676H18.1637V35.1534ZM41.729 29.7273C41.729 31.2803 41.445 32.6155 40.8768 33.733C40.3086 34.8456 39.5297 35.7027 38.5401 36.304C37.5553 36.9006 36.4355 37.1989 35.1808 37.1989C33.9213 37.1989 32.7968 36.9006 31.8072 36.304C30.8223 35.7027 30.0458 34.8433 29.4776 33.7259C28.9094 32.6084 28.6254 31.2756 28.6254 29.7273C28.6254 28.1742 28.9094 26.8414 29.4776 25.7287C30.0458 24.6113 30.8223 23.7543 31.8072 23.1577C32.7968 22.5563 33.9213 22.2557 35.1808 22.2557C36.4355 22.2557 37.5553 22.5563 38.5401 23.1577C39.5297 23.7543 40.3086 24.6113 40.8768 25.7287C41.445 26.8414 41.729 28.1742 41.729 29.7273ZM39.5558 29.7273C39.5558 28.5436 39.364 27.5469 38.9805 26.7372C38.6017 25.9228 38.0808 25.3073 37.418 24.8906C36.7598 24.4692 36.0141 24.2585 35.1808 24.2585C34.3427 24.2585 33.5946 24.4692 32.9364 24.8906C32.2783 25.3073 31.7575 25.9228 31.3739 26.7372C30.9951 27.5469 30.8058 28.5436 30.8058 29.7273C30.8058 30.911 30.9951 31.91 31.3739 32.7244C31.7575 33.5341 32.2783 34.1496 32.9364 34.571C33.5946 34.9877 34.3427 35.196 35.1808 35.196C36.0141 35.196 36.7598 34.9877 37.418 34.571C38.0808 34.1496 38.6017 33.5341 38.9805 32.7244C39.364 31.91 39.5558 30.911 39.5558 29.7273ZM44.4652 37V22.4545H49.6499C50.7815 22.4545 51.719 22.6605 52.4624 23.0724C53.2057 23.4844 53.7621 24.0478 54.1314 24.7628C54.5007 25.473 54.6854 26.2732 54.6854 27.1634C54.6854 28.0582 54.4983 28.8632 54.1243 29.5781C53.755 30.2884 53.1963 30.8518 52.4482 31.2685C51.7048 31.6804 50.7696 31.8864 49.6428 31.8864H46.0774V30.0256H49.4439C50.1589 30.0256 50.7389 29.9025 51.1839 29.6562C51.629 29.4053 51.9557 29.0644 52.1641 28.6335C52.3724 28.2027 52.4766 27.7126 52.4766 27.1634C52.4766 26.6141 52.3724 26.1264 52.1641 25.7003C51.9557 25.2741 51.6267 24.9403 51.1768 24.6989C50.7318 24.4574 50.1446 24.3366 49.4155 24.3366H46.6598V37H44.4652ZM58.288 37.1989V35.267H59.1616C59.5262 35.267 59.8268 35.2055 60.0636 35.0824C60.305 34.9593 60.5015 34.7936 60.6531 34.5852C60.8093 34.3722 60.9395 34.1402 61.0437 33.8892L61.2496 33.3707L56.136 22.4545H58.4656L62.2795 30.8636L65.6744 22.4545H67.9755L62.9471 34.4787C62.734 34.9616 62.4878 35.4091 62.2085 35.821C61.9338 36.233 61.5669 36.5668 61.1076 36.8224C60.6483 37.0734 60.0399 37.1989 59.2823 37.1989H58.288ZM68.9503 40.5156V35.1392H69.9091C70.2358 34.8646 70.5412 34.474 70.8253 33.9673C71.1094 33.4607 71.3509 32.7765 71.5497 31.9148C71.7486 31.053 71.8859 29.9474 71.9616 28.598L72.3026 22.4545H81.2727V35.1392H82.9205V40.4943H80.8182V37H71.0526V40.5156H68.9503ZM72.4943 35.1392H79.1705V24.3438H74.2912L74.0639 28.598C74.0024 29.6255 73.9006 30.5488 73.7585 31.3679C73.6212 32.187 73.4437 32.9115 73.2259 33.5412C73.0128 34.1662 72.7689 34.6989 72.4943 35.1392ZM97.9595 29.7273C97.9595 31.2803 97.6754 32.6155 97.1072 33.733C96.5391 34.8456 95.7602 35.7027 94.7706 36.304C93.7857 36.9006 92.666 37.1989 91.4112 37.1989C90.1518 37.1989 89.0272 36.9006 88.0376 36.304C87.0528 35.7027 86.2763 34.8433 85.7081 33.7259C85.1399 32.6084 84.8558 31.2756 84.8558 29.7273C84.8558 28.1742 85.1399 26.8414 85.7081 25.7287C86.2763 24.6113 87.0528 23.7543 88.0376 23.1577C89.0272 22.5563 90.1518 22.2557 91.4112 22.2557C92.666 22.2557 93.7857 22.5563 94.7706 23.1577C95.7602 23.7543 96.5391 24.6113 97.1072 25.7287C97.6754 26.8414 97.9595 28.1742 97.9595 29.7273ZM95.7862 29.7273C95.7862 28.5436 95.5945 27.5469 95.2109 26.7372C94.8321 25.9228 94.3113 25.3073 93.6484 24.8906C92.9903 24.4692 92.2446 24.2585 91.4112 24.2585C90.5732 24.2585 89.825 24.4692 89.1669 24.8906C88.5088 25.3073 87.9879 25.9228 87.6044 26.7372C87.2256 27.5469 87.0362 28.5436 87.0362 29.7273C87.0362 30.911 87.2256 31.91 87.6044 32.7244C87.9879 33.5341 88.5088 34.1496 89.1669 34.571C89.825 34.9877 90.5732 35.196 91.4112 35.196C92.2446 35.196 92.9903 34.9877 93.6484 34.571C94.3113 34.1496 94.8321 33.5341 95.2109 32.7244C95.5945 31.91 95.7862 30.911 95.7862 29.7273ZM100.696 37V22.4545H106.022C107.055 22.4545 107.909 22.625 108.586 22.9659C109.263 23.3021 109.77 23.759 110.106 24.3366C110.442 24.9096 110.61 25.5559 110.61 26.2756C110.61 26.8816 110.499 27.393 110.277 27.8097C110.054 28.2216 109.756 28.553 109.382 28.804C109.012 29.0502 108.605 29.2301 108.16 29.3438V29.4858C108.643 29.5095 109.114 29.6657 109.574 29.9545C110.038 30.2386 110.421 30.6435 110.724 31.169C111.027 31.6946 111.179 32.3338 111.179 33.0866C111.179 33.83 111.003 34.4976 110.653 35.0895C110.307 35.6766 109.772 36.143 109.048 36.4886C108.324 36.8295 107.398 37 106.271 37H100.696ZM102.89 35.1179H106.058C107.109 35.1179 107.862 34.9143 108.316 34.5071C108.771 34.0999 108.998 33.5909 108.998 32.9801C108.998 32.5208 108.882 32.0994 108.65 31.7159C108.418 31.3324 108.087 31.027 107.656 30.7997C107.23 30.5724 106.723 30.4588 106.136 30.4588H102.89V35.1179ZM102.89 28.7472H105.831C106.323 28.7472 106.766 28.6525 107.159 28.4631C107.556 28.2737 107.871 28.0085 108.103 27.6676C108.34 27.322 108.458 26.9148 108.458 26.446C108.458 25.8447 108.248 25.3404 107.826 24.9332C107.405 24.526 106.759 24.3224 105.887 24.3224H102.89V28.7472ZM115.01 37H112.681L117.915 22.4545H120.451L125.685 37H123.355L119.243 25.0966H119.13L115.01 37ZM115.401 31.304H122.958V33.1506H115.401V31.304ZM127.786 37V22.4545H129.98V28.7756H137.232V22.4545H139.433V37H137.232V30.6577H129.98V37H127.786ZM142.629 22.4545H144.803V33.1364H144.938L152.338 22.4545H154.369V37H152.175V26.3324H152.04L144.653 37H142.629V22.4545ZM157.571 37V22.4545H166.69V24.3438H159.765V28.7756H166.214V30.6577H159.765V35.1108H166.775V37H157.571Z" fill="#183280"/>
</svg>
