<svg width="176" height="60" viewBox="0 0 176 60" fill="none" xmlns="http://www.w3.org/2000/svg">
<rect width="176" height="60" rx="3" fill="white"/>
<path d="M35.1747 21.5455C35.1747 22.7102 34.9616 23.7116 34.5355 24.5497C34.1094 25.3842 33.5252 26.027 32.783 26.478C32.0444 26.9254 31.2045 27.1491 30.2635 27.1491C29.3189 27.1491 28.4755 26.9254 27.7333 26.478C26.9947 26.027 26.4123 25.3825 25.9862 24.5444C25.56 23.7063 25.3469 22.7067 25.3469 21.5455C25.3469 20.3807 25.56 19.381 25.9862 18.5465C26.4123 17.7085 26.9947 17.0657 27.7333 16.6183C28.4755 16.1673 29.3189 15.9418 30.2635 15.9418C31.2045 15.9418 32.0444 16.1673 32.783 16.6183C33.5252 17.0657 34.1094 17.7085 34.5355 18.5465C34.9616 19.381 35.1747 20.3807 35.1747 21.5455ZM33.5447 21.5455C33.5447 20.6577 33.4009 19.9102 33.1133 19.3029C32.8292 18.6921 32.4386 18.2305 31.9414 17.918C31.4478 17.6019 30.8885 17.4439 30.2635 17.4439C29.6349 17.4439 29.0739 17.6019 28.5803 17.918C28.0866 18.2305 27.696 18.6921 27.4084 19.3029C27.1243 19.9102 26.9822 20.6577 26.9822 21.5455C26.9822 22.4332 27.1243 23.1825 27.4084 23.7933C27.696 24.4006 28.0866 24.8622 28.5803 25.1783C29.0739 25.4908 29.6349 25.647 30.2635 25.647C30.8885 25.647 31.4478 25.4908 31.9414 25.1783C32.4386 24.8622 32.8292 24.4006 33.1133 23.7933C33.4009 23.1825 33.5447 22.4332 33.5447 21.5455ZM36.2201 17.5078V16.0909H44.6629V17.5078H41.2591V27H39.6185V17.5078H36.2201ZM55.536 21.5455C55.536 22.7102 55.323 23.7116 54.8968 24.5497C54.4707 25.3842 53.8865 26.027 53.1444 26.478C52.4057 26.9254 51.5659 27.1491 50.6248 27.1491C49.6802 27.1491 48.8368 26.9254 48.0946 26.478C47.356 26.027 46.7736 25.3825 46.3475 24.5444C45.9213 23.7063 45.7083 22.7067 45.7083 21.5455C45.7083 20.3807 45.9213 19.381 46.3475 18.5465C46.7736 17.7085 47.356 17.0657 48.0946 16.6183C48.8368 16.1673 49.6802 15.9418 50.6248 15.9418C51.5659 15.9418 52.4057 16.1673 53.1444 16.6183C53.8865 17.0657 54.4707 17.7085 54.8968 18.5465C55.323 19.381 55.536 20.3807 55.536 21.5455ZM53.9061 21.5455C53.9061 20.6577 53.7623 19.9102 53.4746 19.3029C53.1905 18.6921 52.7999 18.2305 52.3027 17.918C51.8091 17.6019 51.2498 17.4439 50.6248 17.4439C49.9963 17.4439 49.4352 17.6019 48.9416 17.918C48.448 18.2305 48.0574 18.6921 47.7697 19.3029C47.4856 19.9102 47.3436 20.6577 47.3436 21.5455C47.3436 22.4332 47.4856 23.1825 47.7697 23.7933C48.0574 24.4006 48.448 24.8622 48.9416 25.1783C49.4352 25.4908 49.9963 25.647 50.6248 25.647C51.2498 25.647 51.8091 25.4908 52.3027 25.1783C52.7999 24.8622 53.1905 24.4006 53.4746 23.7933C53.7623 23.1825 53.9061 22.4332 53.9061 21.5455ZM66.1162 16.0909V27H64.4756V17.4972H59.3406V27H57.7V16.0909H66.1162ZM68.6331 16.0909H70.2631V24.1023H70.3643L75.9147 16.0909H77.4381V27H75.7922V18.9993H75.691L70.1512 27H68.6331V16.0909ZM79.3011 17.5078V16.0909H87.744V17.5078H84.3402V27H82.6996V17.5078H79.3011ZM89.6096 27V16.0909H96.4491V17.5078H91.2556V20.8317H96.0922V22.2433H91.2556V25.5831H96.5131V27H89.6096ZM97.8221 27V25.5724L98.1417 25.5618C98.5749 25.5511 98.9158 25.4038 99.1644 25.1197C99.4165 24.8356 99.5994 24.3775 99.7131 23.7454C99.8303 23.1133 99.9084 22.2699 99.9474 21.2152L100.134 16.0909H107.032V27H105.407V17.4865H101.684L101.513 21.652C101.467 22.8203 101.35 23.8022 101.162 24.5977C100.974 25.3896 100.654 25.9879 100.203 26.3928C99.7557 26.7976 99.1183 27 98.2908 27H97.8221ZM110.585 20.4908H113.525C114.335 20.4908 115.024 20.6222 115.592 20.8849C116.16 21.1477 116.593 21.5188 116.892 21.9982C117.194 22.4776 117.343 23.0423 117.339 23.6921C117.343 24.342 117.194 24.9155 116.892 25.4126C116.593 25.9098 116.16 26.2987 115.592 26.5792C115.024 26.8597 114.335 27 113.525 27H109.44V16.0909H111.091V25.6151H113.525C113.998 25.6151 114.395 25.5227 114.718 25.3381C115.045 25.1534 115.292 24.9137 115.459 24.619C115.629 24.3242 115.714 24.0082 115.714 23.6708C115.714 23.1808 115.526 22.7599 115.15 22.4084C114.773 22.0533 114.232 21.8757 113.525 21.8757H110.585V20.4908ZM119.346 27V16.0909H120.992V20.8317H126.43V16.0909H128.082V27H126.43V22.2433H120.992V27H119.346ZM139.955 21.5455C139.955 22.7102 139.742 23.7116 139.316 24.5497C138.89 25.3842 138.305 26.027 137.563 26.478C136.825 26.9254 135.985 27.1491 135.044 27.1491C134.099 27.1491 133.256 26.9254 132.514 26.478C131.775 26.027 131.193 25.3825 130.766 24.5444C130.34 23.7063 130.127 22.7067 130.127 21.5455C130.127 20.3807 130.34 19.381 130.766 18.5465C131.193 17.7085 131.775 17.0657 132.514 16.6183C133.256 16.1673 134.099 15.9418 135.044 15.9418C135.985 15.9418 136.825 16.1673 137.563 16.6183C138.305 17.0657 138.89 17.7085 139.316 18.5465C139.742 19.381 139.955 20.3807 139.955 21.5455ZM138.325 21.5455C138.325 20.6577 138.181 19.9102 137.894 19.3029C137.609 18.6921 137.219 18.2305 136.722 17.918C136.228 17.6019 135.669 17.4439 135.044 17.4439C134.415 17.4439 133.854 17.6019 133.361 17.918C132.867 18.2305 132.476 18.6921 132.189 19.3029C131.905 19.9102 131.763 20.6577 131.763 21.5455C131.763 22.4332 131.905 23.1825 132.189 23.7933C132.476 24.4006 132.867 24.8622 133.361 25.1783C133.854 25.4908 134.415 25.647 135.044 25.647C135.669 25.647 136.228 25.4908 136.722 25.1783C137.219 24.8622 137.609 24.4006 137.894 23.7933C138.181 23.1825 138.325 22.4332 138.325 21.5455ZM142.007 27V16.0909H148.847V17.5078H143.653V20.8317H148.49V22.2433H143.653V25.5831H148.911V27H142.007ZM35.1747 38.5455C35.1747 39.7102 34.9616 40.7116 34.5355 41.5497C34.1094 42.3842 33.5252 43.027 32.783 43.478C32.0444 43.9254 31.2045 44.1491 30.2635 44.1491C29.3189 44.1491 28.4755 43.9254 27.7333 43.478C26.9947 43.027 26.4123 42.3825 25.9862 41.5444C25.56 40.7063 25.3469 39.7067 25.3469 38.5455C25.3469 37.3807 25.56 36.381 25.9862 35.5465C26.4123 34.7085 26.9947 34.0657 27.7333 33.6183C28.4755 33.1673 29.3189 32.9418 30.2635 32.9418C31.2045 32.9418 32.0444 33.1673 32.783 33.6183C33.5252 34.0657 34.1094 34.7085 34.5355 35.5465C34.9616 36.381 35.1747 37.3807 35.1747 38.5455ZM33.5447 38.5455C33.5447 37.6577 33.4009 36.9102 33.1133 36.3029C32.8292 35.6921 32.4386 35.2305 31.9414 34.918C31.4478 34.6019 30.8885 34.4439 30.2635 34.4439C29.6349 34.4439 29.0739 34.6019 28.5803 34.918C28.0866 35.2305 27.696 35.6921 27.4084 36.3029C27.1243 36.9102 26.9822 37.6577 26.9822 38.5455C26.9822 39.4332 27.1243 40.1825 27.4084 40.7933C27.696 41.4006 28.0866 41.8622 28.5803 42.1783C29.0739 42.4908 29.6349 42.647 30.2635 42.647C30.8885 42.647 31.4478 42.4908 31.9414 42.1783C32.4386 41.8622 32.8292 41.4006 33.1133 40.7933C33.4009 40.1825 33.5447 39.4332 33.5447 38.5455ZM37.2268 44V33.0909H44.029V34.5078H38.8728V37.4908H41.3124C42.1221 37.4908 42.8092 37.6222 43.3738 37.8849C43.942 38.1477 44.3753 38.5188 44.6736 38.9982C44.9754 39.4776 45.1263 40.0423 45.1263 40.6921C45.1263 41.342 44.9754 41.9155 44.6736 42.4126C44.3753 42.9098 43.942 43.2987 43.3738 43.5792C42.8092 43.8597 42.1221 44 41.3124 44H37.2268ZM38.8728 42.6151H41.3124C41.7812 42.6151 42.1771 42.5227 42.5003 42.3381C42.827 42.1534 43.0738 41.9137 43.2407 41.619C43.4111 41.3242 43.4964 41.0082 43.4964 40.6708C43.4964 40.1808 43.3082 39.7599 42.9317 39.4084C42.5553 39.0533 42.0155 38.8757 41.3124 38.8757H38.8728V42.6151ZM56.5468 38.5455C56.5468 39.7102 56.3337 40.7116 55.9076 41.5497C55.4814 42.3842 54.8973 43.027 54.1551 43.478C53.4165 43.9254 52.5766 44.1491 51.6356 44.1491C50.691 44.1491 49.8476 43.9254 49.1054 43.478C48.3667 43.027 47.7844 42.3825 47.3582 41.5444C46.9321 40.7063 46.719 39.7067 46.719 38.5455C46.719 37.3807 46.9321 36.381 47.3582 35.5465C47.7844 34.7085 48.3667 34.0657 49.1054 33.6183C49.8476 33.1673 50.691 32.9418 51.6356 32.9418C52.5766 32.9418 53.4165 33.1673 54.1551 33.6183C54.8973 34.0657 55.4814 34.7085 55.9076 35.5465C56.3337 36.381 56.5468 37.3807 56.5468 38.5455ZM54.9168 38.5455C54.9168 37.6577 54.773 36.9102 54.4854 36.3029C54.2013 35.6921 53.8106 35.2305 53.3135 34.918C52.8199 34.6019 52.2606 34.4439 51.6356 34.4439C51.007 34.4439 50.4459 34.6019 49.9523 34.918C49.4587 35.2305 49.0681 35.6921 48.7805 36.3029C48.4964 36.9102 48.3543 37.6577 48.3543 38.5455C48.3543 39.4332 48.4964 40.1825 48.7805 40.7933C49.0681 41.4006 49.4587 41.8622 49.9523 42.1783C50.4459 42.4908 51.007 42.647 51.6356 42.647C52.2606 42.647 52.8199 42.4908 53.3135 42.1783C53.8106 41.8622 54.2013 41.4006 54.4854 40.7933C54.773 40.1825 54.9168 39.4332 54.9168 38.5455ZM58.5989 44V33.0909H62.4874C63.3361 33.0909 64.0392 33.2454 64.5968 33.5543C65.1543 33.8633 65.5716 34.2859 65.8485 34.8221C66.1255 35.3548 66.264 35.9549 66.264 36.6225C66.264 37.2937 66.1238 37.8974 65.8432 38.4336C65.5662 38.9663 65.1472 39.3888 64.5861 39.7013C64.0286 40.0103 63.3272 40.1648 62.4821 40.1648H59.8081V38.7692H62.3329C62.8691 38.7692 63.3042 38.6768 63.638 38.4922C63.9718 38.304 64.2168 38.0483 64.373 37.7251C64.5293 37.402 64.6074 37.0344 64.6074 36.6225C64.6074 36.2106 64.5293 35.8448 64.373 35.5252C64.2168 35.2056 63.97 34.9553 63.6326 34.7741C63.2988 34.593 62.8585 34.5025 62.3116 34.5025H60.2449V44H58.5989ZM68.966 44.1491V42.7003H69.6212C69.8946 42.7003 70.1201 42.6541 70.2977 42.5618C70.4788 42.4695 70.6262 42.3452 70.7398 42.1889C70.857 42.0291 70.9546 41.8551 71.0328 41.6669L71.1872 41.2781L67.352 33.0909H69.0992L71.9596 39.3977L74.5058 33.0909H76.2316L72.4603 42.109C72.3005 42.4712 72.1159 42.8068 71.9063 43.1158C71.7004 43.4247 71.4252 43.6751 71.0807 43.8668C70.7362 44.055 70.2799 44.1491 69.7117 44.1491H68.966ZM76.9627 46.6367V42.6044H77.6818C77.9268 42.3984 78.1559 42.1055 78.369 41.7255C78.582 41.3455 78.7631 40.8324 78.9123 40.1861C79.0614 39.5398 79.1644 38.7106 79.2212 37.6985L79.4769 33.0909H86.2045V42.6044H87.4403V46.6207H85.8636V44H78.5394V46.6367H76.9627ZM79.6207 42.6044H84.6278V34.5078H80.9684L80.7979 37.6985C80.7518 38.4691 80.6754 39.1616 80.5689 39.7759C80.4659 40.3903 80.3327 40.9336 80.1694 41.4059C80.0096 41.8746 79.8267 42.2741 79.6207 42.6044ZM98.7196 38.5455C98.7196 39.7102 98.5066 40.7116 98.0804 41.5497C97.6543 42.3842 97.0701 43.027 96.3279 43.478C95.5893 43.9254 94.7495 44.1491 93.8084 44.1491C92.8638 44.1491 92.0204 43.9254 91.2782 43.478C90.5396 43.027 89.9572 42.3825 89.5311 41.5444C89.1049 40.7063 88.8919 39.7067 88.8919 38.5455C88.8919 37.3807 89.1049 36.381 89.5311 35.5465C89.9572 34.7085 90.5396 34.0657 91.2782 33.6183C92.0204 33.1673 92.8638 32.9418 93.8084 32.9418C94.7495 32.9418 95.5893 33.1673 96.3279 33.6183C97.0701 34.0657 97.6543 34.7085 98.0804 35.5465C98.5066 36.381 98.7196 37.3807 98.7196 38.5455ZM97.0897 38.5455C97.0897 37.6577 96.9458 36.9102 96.6582 36.3029C96.3741 35.6921 95.9835 35.2305 95.4863 34.918C94.9927 34.6019 94.4334 34.4439 93.8084 34.4439C93.1799 34.4439 92.6188 34.6019 92.1252 34.918C91.6316 35.2305 91.2409 35.6921 90.9533 36.3029C90.6692 36.9102 90.5272 37.6577 90.5272 38.5455C90.5272 39.4332 90.6692 40.1825 90.9533 40.7933C91.2409 41.4006 91.6316 41.8622 92.1252 42.1783C92.6188 42.4908 93.1799 42.647 93.8084 42.647C94.4334 42.647 94.9927 42.4908 95.4863 42.1783C95.9835 41.8622 96.3741 41.4006 96.6582 40.7933C96.9458 40.1825 97.0897 39.4332 97.0897 38.5455ZM100.772 44V33.0909H104.767C105.541 33.0909 106.182 33.2187 106.69 33.4744C107.198 33.7266 107.578 34.0692 107.83 34.5025C108.082 34.9322 108.208 35.4169 108.208 35.9567C108.208 36.4112 108.124 36.7947 107.957 37.1072C107.791 37.4162 107.567 37.6648 107.286 37.853C107.009 38.0376 106.704 38.1726 106.37 38.2578V38.3643C106.732 38.3821 107.086 38.4993 107.43 38.7159C107.778 38.929 108.066 39.2326 108.293 39.6268C108.52 40.021 108.634 40.5004 108.634 41.065C108.634 41.6225 108.503 42.1232 108.24 42.5671C107.981 43.0075 107.579 43.3572 107.036 43.6165C106.493 43.8722 105.798 44 104.953 44H100.772ZM102.418 42.5884H104.793C105.582 42.5884 106.146 42.4357 106.487 42.1303C106.828 41.8249 106.999 41.4432 106.999 40.9851C106.999 40.6406 106.912 40.3246 106.738 40.0369C106.564 39.7493 106.315 39.5202 105.992 39.3498C105.672 39.1793 105.292 39.0941 104.852 39.0941H102.418V42.5884ZM102.418 37.8104H104.623C104.992 37.8104 105.324 37.7393 105.619 37.5973C105.917 37.4553 106.153 37.2564 106.328 37.0007C106.505 36.7415 106.594 36.4361 106.594 36.0845C106.594 35.6335 106.436 35.2553 106.12 34.9499C105.804 34.6445 105.319 34.4918 104.666 34.4918H102.418V37.8104ZM111.508 44H109.761L113.686 33.0909H115.588L119.514 44H117.767L114.682 35.0724H114.597L111.508 44ZM111.801 39.728H117.468V41.1129H111.801V39.728ZM121.089 44V33.0909H122.735V37.8317H128.174V33.0909H129.825V44H128.174V39.2433H122.735V44H121.089ZM132.222 33.0909H133.852V41.1023H133.953L139.504 33.0909H141.027V44H139.381V35.9993H139.28L133.74 44H132.222V33.0909ZM143.428 44V33.0909H150.267V34.5078H145.074V37.8317H149.911V39.2433H145.074V42.5831H150.331V44H143.428Z" fill="#183280"/>
</svg>
