<svg width="150" height="15" viewBox="0 0 150 15" fill="none" xmlns="http://www.w3.org/2000/svg">
<path d="M5.08084 13.8331C5.28273 14.0733 5.59369 14.0517 5.77539 13.7848C5.95709 13.518 5.94073 13.107 5.73883 12.8669L1.77342 8.15L29.5082 8.15C29.7798 8.15 30 7.85898 30 7.5C30 7.14102 29.7798 6.85 29.5082 6.85L1.77342 6.85L5.73883 2.13315C5.94073 1.893 5.95709 1.48201 5.77539 1.21518C5.59369 0.948347 5.28273 0.926717 5.08084 1.16687L0.162804 7.01686C0.0591755 7.14013 0 7.31573 0 7.5C0 7.68427 0.0591755 7.85987 0.162804 7.98314L5.08084 13.8331Z" fill="#D7D7D7"/>
<circle cx="55" cy="7.5" r="5" fill="#183280"/>
<circle cx="75" cy="7.5" r="5" fill="#D7D7D7"/>
<circle cx="95" cy="7.5" r="5" fill="#D7D7D7"/>
<path d="M144.919 1.16686C144.717 0.926716 144.406 0.948347 144.225 1.21518C144.043 1.48201 144.059 1.893 144.261 2.13315L148.227 6.85H120.492C120.22 6.85 120 7.14102 120 7.5C120 7.85898 120.22 8.15 120.492 8.15H148.227L144.261 12.8669C144.059 13.107 144.043 13.518 144.225 13.7848C144.406 14.0517 144.717 14.0733 144.919 13.8331L149.837 7.98314C149.941 7.85987 150 7.68427 150 7.5C150 7.31573 149.941 7.14013 149.837 7.01686L144.919 1.16686Z" fill="#D7D7D7"/>
</svg>
