<svg width="63" height="20" viewBox="0 0 63 20" fill="none" xmlns="http://www.w3.org/2000/svg">
<g clip-path="url(#clip0_112_523)">
<path fill-rule="evenodd" clip-rule="evenodd" d="M20.5648 0.477685C20.8355 0.362119 21.1317 0.322261 21.4227 0.362259C21.7137 0.402257 21.9888 0.52065 22.2194 0.705113C22.45 0.889576 22.6276 1.13337 22.7338 1.41111C22.84 1.68885 22.8709 1.9904 22.8232 2.28435L20.3392 17.5699C20.0982 19.0444 18.5036 19.8899 17.1707 19.1555C16.0557 18.541 14.3997 17.5944 12.9102 16.6066C12.1654 16.1121 9.88405 14.5288 10.1644 13.4021C10.4054 12.4388 14.2387 8.8188 16.4292 6.66657C17.289 5.82102 16.8969 5.33324 15.8816 6.11102C13.3603 8.04213 9.31234 10.9788 7.97396 11.8055C6.79329 12.5344 6.17777 12.6588 5.44177 12.5344C4.099 12.3077 2.85372 11.9566 1.83734 11.5288C0.463908 10.951 0.530718 9.03546 1.83624 8.47768L20.5648 0.477685Z" fill="#0088CC"/>
</g>
<path d="M53 0C58.523 0 63 4.477 63 9.99999C63 15.523 58.523 20 53 20C51.2328 20.0028 49.4967 19.5352 47.97 18.645L43.004 20L44.356 15.032C43.4651 13.5049 42.9971 11.768 43 9.99999C43 4.477 47.477 0 53 0ZM49.592 5.3L49.392 5.308C49.2625 5.31588 49.136 5.3499 49.02 5.408C48.9115 5.46943 48.8125 5.54622 48.726 5.636C48.606 5.749 48.538 5.847 48.465 5.942C48.0951 6.4229 47.896 7.01331 47.899 7.62C47.901 8.10999 48.029 8.58699 48.229 9.03299C48.638 9.93499 49.311 10.89 50.199 11.775C50.413 11.988 50.623 12.202 50.849 12.401C51.9524 13.3725 53.2673 14.073 54.689 14.447L55.257 14.534C55.442 14.544 55.627 14.53 55.813 14.521C56.1042 14.506 56.3886 14.4271 56.646 14.29C56.777 14.2225 56.9048 14.1491 57.029 14.07C57.029 14.07 57.072 14.042 57.154 13.98C57.289 13.88 57.372 13.809 57.484 13.692C57.567 13.606 57.639 13.505 57.694 13.39C57.772 13.227 57.85 12.916 57.882 12.657C57.906 12.459 57.899 12.351 57.896 12.284C57.892 12.177 57.803 12.066 57.706 12.019L57.124 11.758C57.124 11.758 56.254 11.379 55.722 11.137C55.6663 11.1127 55.6067 11.0988 55.546 11.096C55.4776 11.089 55.4085 11.0967 55.3433 11.1186C55.2781 11.1405 55.2183 11.1761 55.168 11.223C55.163 11.221 55.096 11.278 54.373 12.154C54.3315 12.2098 54.2743 12.2519 54.2088 12.275C54.1433 12.2982 54.0723 12.3013 54.005 12.284C53.9399 12.2665 53.876 12.2445 53.814 12.218C53.69 12.166 53.647 12.146 53.562 12.11C52.9881 11.8595 52.4567 11.5211 51.987 11.107C51.861 10.997 51.744 10.877 51.624 10.761C51.2306 10.3842 50.8877 9.958 50.604 9.49299L50.545 9.39799C50.5026 9.33416 50.4684 9.2653 50.443 9.19299C50.405 9.04599 50.504 8.92799 50.504 8.92799C50.504 8.92799 50.747 8.66199 50.86 8.51799C50.97 8.37799 51.063 8.24199 51.123 8.14499C51.241 7.955 51.278 7.75999 51.216 7.609C50.936 6.925 50.646 6.244 50.348 5.568C50.289 5.434 50.114 5.338 49.955 5.319C49.901 5.313 49.847 5.307 49.793 5.303C49.6587 5.29632 49.5241 5.29766 49.39 5.307L49.592 5.3Z" fill="#14AF25"/>
<defs>
<clipPath id="clip0_112_523">
<rect width="23" height="20" fill="white" transform="translate(-0.000976562)"/>
</clipPath>
</defs>
</svg>
