<svg width="410" height="40" viewBox="0 0 410 40" fill="none" xmlns="http://www.w3.org/2000/svg">
<path d="M1 9.97368V3.5C1 1.84315 2.34315 0.5 4 0.5H211C212.657 0.5 214 1.84315 214 3.5V10.5" stroke="#183280"/>
<path d="M31.1805 28.618C32.8882 26.4808 36.7831 21.301 36.7831 18.3915C36.7831 14.8629 33.9202 12 30.3915 12C26.8629 12 24 14.8629 24 18.3915C24 21.301 27.8948 26.4808 29.6026 28.618C30.012 29.1273 30.771 29.1273 31.1805 28.618ZM30.3915 16.261C30.9566 16.261 31.4985 16.4855 31.898 16.885C32.2976 17.2846 32.5221 17.8265 32.5221 18.3915C32.5221 18.9566 32.2976 19.4985 31.898 19.898C31.4985 20.2976 30.9566 20.5221 30.3915 20.5221C29.8265 20.5221 29.2846 20.2976 28.885 19.898C28.4855 19.4985 28.261 18.9566 28.261 18.3915C28.261 17.8265 28.4855 17.2846 28.885 16.885C29.2846 16.4855 29.8265 16.261 30.3915 16.261Z" fill="#183280"/>
<path d="M59.4545 24.25L59.2955 28.25H57.9091V25.5H56.7955V24.25H59.4545ZM45.9091 13.8636H47.3182V24.2045H51.4091V13.8636H52.8182V24.2045H56.9091V13.8636H58.3182V25.5H45.9091V13.8636ZM65.0739 25.6818C64.233 25.6818 63.5076 25.4962 62.8977 25.125C62.2917 24.75 61.8239 24.2273 61.4943 23.5568C61.1686 22.8826 61.0057 22.0985 61.0057 21.2045C61.0057 20.3106 61.1686 19.5227 61.4943 18.8409C61.8239 18.1553 62.2822 17.6212 62.8693 17.2386C63.4602 16.8523 64.1496 16.6591 64.9375 16.6591C65.392 16.6591 65.8409 16.7348 66.2841 16.8864C66.7273 17.0379 67.1307 17.2841 67.4943 17.625C67.858 17.9621 68.1477 18.4091 68.3636 18.9659C68.5795 19.5227 68.6875 20.2083 68.6875 21.0227V21.5909H61.9602V20.4318H67.3239C67.3239 19.9394 67.2254 19.5 67.0284 19.1136C66.8352 18.7273 66.5587 18.4223 66.1989 18.1989C65.8428 17.9754 65.4223 17.8636 64.9375 17.8636C64.4034 17.8636 63.9413 17.9962 63.5511 18.2614C63.1648 18.5227 62.8674 18.8636 62.6591 19.2841C62.4508 19.7045 62.3466 20.1553 62.3466 20.6364V21.4091C62.3466 22.0682 62.4602 22.6269 62.6875 23.0852C62.9186 23.5398 63.2386 23.8864 63.6477 24.125C64.0568 24.3598 64.5322 24.4773 65.0739 24.4773C65.4261 24.4773 65.7443 24.428 66.0284 24.3295C66.3163 24.2273 66.5644 24.0758 66.7727 23.875C66.9811 23.6705 67.142 23.4167 67.2557 23.1136L68.5511 23.4773C68.4148 23.9167 68.1856 24.303 67.8636 24.6364C67.5417 24.9659 67.1439 25.2235 66.6705 25.4091C66.197 25.5909 65.6648 25.6818 65.0739 25.6818ZM69.9545 25.5V24.25H70.2727C70.5341 24.25 70.7519 24.1989 70.9261 24.0966C71.1004 23.9905 71.2405 23.8068 71.3466 23.5455C71.4564 23.2803 71.5398 22.9129 71.5966 22.4432C71.6572 21.9697 71.7008 21.3674 71.7273 20.6364L71.8864 16.7727H77.7045V25.5H76.3636V18.0227H73.1591L73.0227 21.1364C72.9924 21.8523 72.928 22.483 72.8295 23.0284C72.7348 23.5701 72.589 24.0246 72.392 24.392C72.1989 24.7595 71.9413 25.036 71.6193 25.2216C71.2973 25.4072 70.8939 25.5 70.4091 25.5H69.9545ZM80.1648 25.5V16.7727H81.5057V20.5682H82.392L85.5284 16.7727H87.2557L83.733 20.9773L87.3011 25.5H85.5739L82.7102 21.8182H81.5057V25.5H80.1648ZM91.9446 25.6818C91.1567 25.6818 90.4654 25.4943 89.8707 25.1193C89.2798 24.7443 88.8177 24.2197 88.4844 23.5455C88.1548 22.8712 87.9901 22.0833 87.9901 21.1818C87.9901 20.2727 88.1548 19.4792 88.4844 18.8011C88.8177 18.1231 89.2798 17.5966 89.8707 17.2216C90.4654 16.8466 91.1567 16.6591 91.9446 16.6591C92.7325 16.6591 93.4219 16.8466 94.0128 17.2216C94.6075 17.5966 95.0696 18.1231 95.3991 18.8011C95.7325 19.4792 95.8991 20.2727 95.8991 21.1818C95.8991 22.0833 95.7325 22.8712 95.3991 23.5455C95.0696 24.2197 94.6075 24.7443 94.0128 25.1193C93.4219 25.4943 92.7325 25.6818 91.9446 25.6818ZM91.9446 24.4773C92.5431 24.4773 93.0355 24.3239 93.4219 24.017C93.8082 23.7102 94.0942 23.3068 94.2798 22.8068C94.4654 22.3068 94.5582 21.7652 94.5582 21.1818C94.5582 20.5985 94.4654 20.0549 94.2798 19.5511C94.0942 19.0473 93.8082 18.6402 93.4219 18.3295C93.0355 18.0189 92.5431 17.8636 91.9446 17.8636C91.3461 17.8636 90.8537 18.0189 90.4673 18.3295C90.081 18.6402 89.795 19.0473 89.6094 19.5511C89.4238 20.0549 89.331 20.5985 89.331 21.1818C89.331 21.7652 89.4238 22.3068 89.6094 22.8068C89.795 23.3068 90.081 23.7102 90.4673 24.017C90.8537 24.3239 91.3461 24.4773 91.9446 24.4773ZM97.946 25.5V16.7727H101.514C102.454 16.7727 103.2 16.9848 103.753 17.4091C104.306 17.8333 104.582 18.3939 104.582 19.0909C104.582 19.6212 104.425 20.0322 104.111 20.3239C103.796 20.6117 103.393 20.8068 102.901 20.9091C103.223 20.9545 103.535 21.0682 103.838 21.25C104.145 21.4318 104.399 21.6818 104.599 22C104.8 22.3144 104.901 22.7008 104.901 23.1591C104.901 23.6061 104.787 24.0057 104.56 24.358C104.332 24.7102 104.007 24.9886 103.582 25.1932C103.158 25.3977 102.651 25.5 102.06 25.5H97.946ZM99.2188 24.2727H102.06C102.522 24.2727 102.884 24.1629 103.145 23.9432C103.406 23.7235 103.537 23.4242 103.537 23.0455C103.537 22.5947 103.406 22.2405 103.145 21.983C102.884 21.7216 102.522 21.5909 102.06 21.5909H99.2188V24.2727ZM99.2188 20.4318H101.514C101.874 20.4318 102.183 20.3826 102.44 20.2841C102.698 20.1818 102.895 20.0379 103.031 19.8523C103.171 19.6629 103.241 19.4394 103.241 19.1818C103.241 18.8144 103.088 18.5265 102.781 18.3182C102.474 18.1061 102.052 18 101.514 18H99.2188V20.4318ZM110.476 25.6818C109.658 25.6818 108.953 25.4886 108.362 25.1023C107.771 24.7159 107.317 24.1837 106.999 23.5057C106.68 22.8277 106.521 22.053 106.521 21.1818C106.521 20.2955 106.684 19.5133 107.01 18.8352C107.339 18.1534 107.798 17.6212 108.385 17.2386C108.976 16.8523 109.665 16.6591 110.453 16.6591C111.067 16.6591 111.62 16.7727 112.112 17C112.605 17.2273 113.008 17.5455 113.322 17.9545C113.637 18.3636 113.832 18.8409 113.908 19.3864H112.567C112.464 18.9886 112.237 18.6364 111.885 18.3295C111.536 18.0189 111.067 17.8636 110.476 17.8636C109.953 17.8636 109.495 18 109.101 18.2727C108.711 18.5417 108.406 18.9223 108.186 19.4148C107.97 19.9034 107.862 20.4773 107.862 21.1364C107.862 21.8106 107.968 22.3977 108.18 22.8977C108.396 23.3977 108.699 23.786 109.089 24.0625C109.483 24.339 109.946 24.4773 110.476 24.4773C110.824 24.4773 111.141 24.4167 111.425 24.2955C111.709 24.1742 111.949 24 112.146 23.7727C112.343 23.5455 112.483 23.2727 112.567 22.9545H113.908C113.832 23.4697 113.644 23.9337 113.345 24.3466C113.05 24.7557 112.658 25.0814 112.169 25.3239C111.684 25.5625 111.12 25.6818 110.476 25.6818ZM115.868 25.5V16.7727H117.209V20.5682H118.095L121.232 16.7727H122.959L119.436 20.9773L123.004 25.5H121.277L118.413 21.8182H117.209V25.5H115.868ZM125.803 23.5227L130.007 16.7727H131.553V25.5H130.212V18.75L126.03 25.5H124.462V16.7727H125.803V23.5227ZM135.349 23.5227L139.554 16.7727H141.099V25.5H139.759V18.75L135.577 25.5H134.009V16.7727H135.349V23.5227ZM138.668 13.8636H139.918C139.918 14.4773 139.705 14.9792 139.281 15.3693C138.857 15.7595 138.281 15.9545 137.554 15.9545C136.838 15.9545 136.268 15.7595 135.844 15.3693C135.423 14.9792 135.213 14.4773 135.213 13.8636H136.463C136.463 14.1591 136.545 14.4186 136.707 14.642C136.874 14.8655 137.156 14.9773 137.554 14.9773C137.952 14.9773 138.236 14.8655 138.406 14.642C138.58 14.4186 138.668 14.1591 138.668 13.8636ZM148.055 28.7727V16.7727H149.351V18.1591H149.51C149.608 18.0076 149.745 17.8144 149.919 17.5795C150.097 17.3409 150.351 17.1288 150.68 16.9432C151.014 16.7538 151.464 16.6591 152.033 16.6591C152.768 16.6591 153.415 16.8428 153.976 17.2102C154.536 17.5777 154.974 18.0985 155.288 18.7727C155.603 19.447 155.76 20.2424 155.76 21.1591C155.76 22.0833 155.603 22.8845 155.288 23.5625C154.974 24.2367 154.538 24.7595 153.982 25.1307C153.425 25.4981 152.783 25.6818 152.055 25.6818C151.495 25.6818 151.046 25.589 150.709 25.4034C150.372 25.214 150.112 25 149.93 24.7614C149.749 24.5189 149.608 24.3182 149.51 24.1591H149.396V28.7727H148.055ZM149.374 21.1364C149.374 21.7955 149.47 22.3769 149.663 22.8807C149.857 23.3807 150.139 23.7727 150.51 24.0568C150.881 24.3371 151.336 24.4773 151.874 24.4773C152.434 24.4773 152.902 24.3295 153.277 24.0341C153.656 23.7348 153.94 23.3333 154.129 22.8295C154.322 22.322 154.419 21.7576 154.419 21.1364C154.419 20.5227 154.324 19.9697 154.135 19.4773C153.949 18.9811 153.667 18.589 153.288 18.3011C152.913 18.0095 152.442 17.8636 151.874 17.8636C151.328 17.8636 150.87 18.0019 150.499 18.2784C150.127 18.5511 149.847 18.9337 149.658 19.4261C149.468 19.9148 149.374 20.4848 149.374 21.1364ZM160.374 25.7045C159.821 25.7045 159.319 25.6004 158.868 25.392C158.417 25.1799 158.059 24.875 157.794 24.4773C157.529 24.0758 157.396 23.5909 157.396 23.0227C157.396 22.5227 157.495 22.1174 157.692 21.8068C157.889 21.4924 158.152 21.2462 158.482 21.0682C158.811 20.8902 159.175 20.7576 159.572 20.6705C159.974 20.5795 160.377 20.5076 160.783 20.4545C161.313 20.3864 161.743 20.3352 162.072 20.3011C162.406 20.2633 162.648 20.2008 162.8 20.1136C162.955 20.0265 163.033 19.875 163.033 19.6591V19.6136C163.033 19.053 162.879 18.6174 162.572 18.3068C162.269 17.9962 161.809 17.8409 161.192 17.8409C160.552 17.8409 160.05 17.9811 159.686 18.2614C159.322 18.5417 159.067 18.8409 158.919 19.1591L157.646 18.7045C157.874 18.1742 158.177 17.7614 158.555 17.4659C158.938 17.1667 159.355 16.9583 159.805 16.8409C160.26 16.7197 160.707 16.6591 161.146 16.6591C161.427 16.6591 161.749 16.6932 162.112 16.7614C162.48 16.8258 162.834 16.9602 163.175 17.1648C163.519 17.3693 163.805 17.678 164.033 18.0909C164.26 18.5038 164.374 19.0568 164.374 19.75V25.5H163.033V24.3182H162.964C162.874 24.5076 162.722 24.7102 162.51 24.9261C162.298 25.142 162.016 25.3258 161.663 25.4773C161.311 25.6288 160.881 25.7045 160.374 25.7045ZM160.578 24.5C161.108 24.5 161.555 24.3958 161.919 24.1875C162.286 23.9792 162.563 23.7102 162.749 23.3807C162.938 23.0511 163.033 22.7045 163.033 22.3409V21.1136C162.976 21.1818 162.851 21.2443 162.658 21.3011C162.468 21.3542 162.249 21.4015 161.999 21.4432C161.752 21.4811 161.512 21.5152 161.277 21.5455C161.046 21.572 160.858 21.5947 160.714 21.6136C160.366 21.6591 160.04 21.733 159.737 21.8352C159.438 21.9337 159.196 22.0833 159.01 22.2841C158.828 22.4811 158.737 22.75 158.737 23.0909C158.737 23.5568 158.91 23.9091 159.254 24.1477C159.603 24.3826 160.044 24.5 160.578 24.5ZM168.162 23.5227L172.366 16.7727H173.912V25.5H172.571V18.75L168.389 25.5H166.821V16.7727H168.162V23.5227ZM171.48 13.8636H172.73C172.73 14.4773 172.518 14.9792 172.094 15.3693C171.67 15.7595 171.094 15.9545 170.366 15.9545C169.651 15.9545 169.08 15.7595 168.656 15.3693C168.236 14.9792 168.026 14.4773 168.026 13.8636H169.276C169.276 14.1591 169.357 14.4186 169.52 14.642C169.687 14.8655 169.969 14.9773 170.366 14.9773C170.764 14.9773 171.048 14.8655 171.219 14.642C171.393 14.4186 171.48 14.1591 171.48 13.8636ZM179.913 25.6818C179.125 25.6818 178.434 25.4943 177.839 25.1193C177.249 24.7443 176.786 24.2197 176.453 23.5455C176.124 22.8712 175.959 22.0833 175.959 21.1818C175.959 20.2727 176.124 19.4792 176.453 18.8011C176.786 18.1231 177.249 17.5966 177.839 17.2216C178.434 16.8466 179.125 16.6591 179.913 16.6591C180.701 16.6591 181.391 16.8466 181.982 17.2216C182.576 17.5966 183.038 18.1231 183.368 18.8011C183.701 19.4792 183.868 20.2727 183.868 21.1818C183.868 22.0833 183.701 22.8712 183.368 23.5455C183.038 24.2197 182.576 24.7443 181.982 25.1193C181.391 25.4943 180.701 25.6818 179.913 25.6818ZM179.913 24.4773C180.512 24.4773 181.004 24.3239 181.391 24.017C181.777 23.7102 182.063 23.3068 182.249 22.8068C182.434 22.3068 182.527 21.7652 182.527 21.1818C182.527 20.5985 182.434 20.0549 182.249 19.5511C182.063 19.0473 181.777 18.6402 181.391 18.3295C181.004 18.0189 180.512 17.8636 179.913 17.8636C179.315 17.8636 178.822 18.0189 178.436 18.3295C178.05 18.6402 177.764 19.0473 177.578 19.5511C177.393 20.0549 177.3 20.5985 177.3 21.1818C177.3 21.7652 177.393 22.3068 177.578 22.8068C177.764 23.3068 178.05 23.7102 178.436 24.017C178.822 24.3239 179.315 24.4773 179.913 24.4773ZM191.756 20.5227V21.7727H186.938V20.5227H191.756ZM187.256 16.7727V25.5H185.915V16.7727H187.256ZM192.778 16.7727V25.5H191.438V16.7727H192.778Z" fill="#183280"/>
<path d="M214 30.0263V36.5C214 38.1569 212.657 39.5 211 39.5L4 39.5C2.34315 39.5 1 38.1569 1 36.5V29.5" stroke="#183280"/>
<path d="M229 9.97368V3.5C229 1.84315 230.343 0.5 232 0.5H406C407.657 0.5 409 1.84315 409 3.5V10.5" stroke="#183280"/>
<path d="M255 12C255.553 12 256 12.4469 256 13V14H260V13C260 12.4469 260.447 12 261 12C261.553 12 262 12.4469 262 13V14H263.5C264.328 14 265 14.6719 265 15.5V17H251V15.5C251 14.6719 251.672 14 252.5 14H254V13C254 12.4469 254.447 12 255 12ZM251 18H265V26.5C265 27.3281 264.328 28 263.5 28H252.5C251.672 28 251 27.3281 251 26.5V18ZM253 20.5V21.5C253 21.775 253.225 22 253.5 22H254.5C254.775 22 255 21.775 255 21.5V20.5C255 20.225 254.775 20 254.5 20H253.5C253.225 20 253 20.225 253 20.5ZM257 20.5V21.5C257 21.775 257.225 22 257.5 22H258.5C258.775 22 259 21.775 259 21.5V20.5C259 20.225 258.775 20 258.5 20H257.5C257.225 20 257 20.225 257 20.5ZM261.5 20C261.225 20 261 20.225 261 20.5V21.5C261 21.775 261.225 22 261.5 22H262.5C262.775 22 263 21.775 263 21.5V20.5C263 20.225 262.775 20 262.5 20H261.5ZM253 24.5V25.5C253 25.775 253.225 26 253.5 26H254.5C254.775 26 255 25.775 255 25.5V24.5C255 24.225 254.775 24 254.5 24H253.5C253.225 24 253 24.225 253 24.5ZM257.5 24C257.225 24 257 24.225 257 24.5V25.5C257 25.775 257.225 26 257.5 26H258.5C258.775 26 259 25.775 259 25.5V24.5C259 24.225 258.775 24 258.5 24H257.5ZM261 24.5V25.5C261 25.775 261.225 26 261.5 26H262.5C262.775 26 263 25.775 263 25.5V24.5C263 24.225 262.775 24 262.5 24H261.5C261.225 24 261 24.225 261 24.5Z" fill="#183280"/>
<path d="M273.612 13.8636H275.294L279.249 23.5227H279.385L283.339 13.8636H285.021V25.5H283.703V16.6591H283.589L279.953 25.5H278.68L275.044 16.6591H274.93V25.5H273.612V13.8636ZM290.233 25.7045C289.68 25.7045 289.178 25.6004 288.727 25.392C288.277 25.1799 287.919 24.875 287.653 24.4773C287.388 24.0758 287.256 23.5909 287.256 23.0227C287.256 22.5227 287.354 22.1174 287.551 21.8068C287.748 21.4924 288.011 21.2462 288.341 21.0682C288.67 20.8902 289.034 20.7576 289.432 20.6705C289.833 20.5795 290.237 20.5076 290.642 20.4545C291.172 20.3864 291.602 20.3352 291.932 20.3011C292.265 20.2633 292.508 20.2008 292.659 20.1136C292.814 20.0265 292.892 19.875 292.892 19.6591V19.6136C292.892 19.053 292.739 18.6174 292.432 18.3068C292.129 17.9962 291.669 17.8409 291.051 17.8409C290.411 17.8409 289.909 17.9811 289.545 18.2614C289.182 18.5417 288.926 18.8409 288.778 19.1591L287.506 18.7045C287.733 18.1742 288.036 17.7614 288.415 17.4659C288.797 17.1667 289.214 16.9583 289.665 16.8409C290.119 16.7197 290.566 16.6591 291.006 16.6591C291.286 16.6591 291.608 16.6932 291.972 16.7614C292.339 16.8258 292.693 16.9602 293.034 17.1648C293.379 17.3693 293.665 17.678 293.892 18.0909C294.119 18.5038 294.233 19.0568 294.233 19.75V25.5H292.892V24.3182H292.824C292.733 24.5076 292.581 24.7102 292.369 24.9261C292.157 25.142 291.875 25.3258 291.523 25.4773C291.17 25.6288 290.741 25.7045 290.233 25.7045ZM290.438 24.5C290.968 24.5 291.415 24.3958 291.778 24.1875C292.146 23.9792 292.422 23.7102 292.608 23.3807C292.797 23.0511 292.892 22.7045 292.892 22.3409V21.1136C292.835 21.1818 292.71 21.2443 292.517 21.3011C292.328 21.3542 292.108 21.4015 291.858 21.4432C291.612 21.4811 291.371 21.5152 291.136 21.5455C290.905 21.572 290.718 21.5947 290.574 21.6136C290.225 21.6591 289.9 21.733 289.597 21.8352C289.297 21.9337 289.055 22.0833 288.869 22.2841C288.688 22.4811 288.597 22.75 288.597 23.0909C288.597 23.5568 288.769 23.9091 289.114 24.1477C289.462 24.3826 289.903 24.5 290.438 24.5ZM298.021 23.5227L302.226 16.7727H303.771V25.5H302.43V18.75L298.249 25.5H296.68V16.7727H298.021V23.5227ZM301.339 13.8636H302.589C302.589 14.4773 302.377 14.9792 301.953 15.3693C301.529 15.7595 300.953 15.9545 300.226 15.9545C299.51 15.9545 298.94 15.7595 298.516 15.3693C298.095 14.9792 297.885 14.4773 297.885 13.8636H299.135C299.135 14.1591 299.216 14.4186 299.379 14.642C299.546 14.8655 299.828 14.9773 300.226 14.9773C300.624 14.9773 300.908 14.8655 301.078 14.642C301.252 14.4186 301.339 14.1591 301.339 13.8636ZM310.705 25.5V24.4773L314.545 20.2727C314.996 19.7803 315.367 19.3523 315.659 18.9886C315.951 18.6212 316.167 18.2765 316.307 17.9545C316.451 17.6288 316.523 17.2879 316.523 16.9318C316.523 16.5227 316.424 16.1686 316.227 15.8693C316.034 15.5701 315.769 15.339 315.432 15.1761C315.095 15.0133 314.716 14.9318 314.295 14.9318C313.848 14.9318 313.458 15.0246 313.125 15.2102C312.795 15.392 312.54 15.6477 312.358 15.9773C312.18 16.3068 312.091 16.6932 312.091 17.1364H310.75C310.75 16.4545 310.907 15.8561 311.222 15.3409C311.536 14.8258 311.964 14.4242 312.506 14.1364C313.051 13.8485 313.663 13.7045 314.341 13.7045C315.023 13.7045 315.627 13.8485 316.153 14.1364C316.68 14.4242 317.093 14.8125 317.392 15.3011C317.691 15.7898 317.841 16.3333 317.841 16.9318C317.841 17.3598 317.763 17.7784 317.608 18.1875C317.456 18.5928 317.191 19.0455 316.812 19.5455C316.438 20.0417 315.917 20.6477 315.25 21.3636L312.636 24.1591V24.25H318.045V25.5H310.705ZM324.188 25.6591C323.331 25.6591 322.602 25.4261 322 24.9602C321.398 24.4905 320.938 23.8106 320.619 22.9205C320.301 22.0265 320.142 20.947 320.142 19.6818C320.142 18.4242 320.301 17.3504 320.619 16.4602C320.941 15.5663 321.403 14.8845 322.006 14.4148C322.612 13.9413 323.339 13.7045 324.188 13.7045C325.036 13.7045 325.761 13.9413 326.364 14.4148C326.97 14.8845 327.432 15.5663 327.75 16.4602C328.072 17.3504 328.233 18.4242 328.233 19.6818C328.233 20.947 328.074 22.0265 327.756 22.9205C327.438 23.8106 326.977 24.4905 326.375 24.9602C325.773 25.4261 325.044 25.6591 324.188 25.6591ZM324.188 24.4091C325.036 24.4091 325.695 24 326.165 23.1818C326.634 22.3636 326.869 21.197 326.869 19.6818C326.869 18.6742 326.761 17.8163 326.545 17.108C326.333 16.3996 326.027 15.8598 325.625 15.4886C325.227 15.1174 324.748 14.9318 324.188 14.9318C323.347 14.9318 322.689 15.3466 322.216 16.1761C321.742 17.0019 321.506 18.1705 321.506 19.6818C321.506 20.6894 321.612 21.5455 321.824 22.25C322.036 22.9545 322.341 23.4905 322.739 23.858C323.14 24.2254 323.623 24.4091 324.188 24.4091ZM330.392 25.5V24.4773L334.233 20.2727C334.684 19.7803 335.055 19.3523 335.347 18.9886C335.638 18.6212 335.854 18.2765 335.994 17.9545C336.138 17.6288 336.21 17.2879 336.21 16.9318C336.21 16.5227 336.112 16.1686 335.915 15.8693C335.722 15.5701 335.456 15.339 335.119 15.1761C334.782 15.0133 334.403 14.9318 333.983 14.9318C333.536 14.9318 333.146 15.0246 332.812 15.2102C332.483 15.392 332.227 15.6477 332.045 15.9773C331.867 16.3068 331.778 16.6932 331.778 17.1364H330.438C330.438 16.4545 330.595 15.8561 330.909 15.3409C331.223 14.8258 331.652 14.4242 332.193 14.1364C332.739 13.8485 333.35 13.7045 334.028 13.7045C334.71 13.7045 335.314 13.8485 335.841 14.1364C336.367 14.4242 336.78 14.8125 337.08 15.3011C337.379 15.7898 337.528 16.3333 337.528 16.9318C337.528 17.3598 337.451 17.7784 337.295 18.1875C337.144 18.5928 336.879 19.0455 336.5 19.5455C336.125 20.0417 335.604 20.6477 334.938 21.3636L332.324 24.1591V24.25H337.733V25.5H330.392ZM344.011 25.6591C343.261 25.6591 342.593 25.5303 342.006 25.2727C341.422 25.0152 340.958 24.6572 340.614 24.1989C340.273 23.7367 340.087 23.2008 340.057 22.5909H341.489C341.519 22.9659 341.648 23.2898 341.875 23.5625C342.102 23.8314 342.4 24.0398 342.767 24.1875C343.134 24.3352 343.542 24.4091 343.989 24.4091C344.489 24.4091 344.932 24.322 345.318 24.1477C345.705 23.9735 346.008 23.7311 346.227 23.4205C346.447 23.1098 346.557 22.75 346.557 22.3409C346.557 21.9129 346.451 21.536 346.239 21.2102C346.027 20.8807 345.716 20.6231 345.307 20.4375C344.898 20.2519 344.398 20.1591 343.807 20.1591H342.875V18.9091H343.807C344.269 18.9091 344.674 18.8258 345.023 18.6591C345.375 18.4924 345.65 18.2576 345.847 17.9545C346.047 17.6515 346.148 17.2955 346.148 16.8864C346.148 16.4924 346.061 16.1496 345.886 15.858C345.712 15.5663 345.466 15.339 345.148 15.1761C344.833 15.0133 344.462 14.9318 344.034 14.9318C343.633 14.9318 343.254 15.0057 342.898 15.1534C342.545 15.2973 342.258 15.5076 342.034 15.7841C341.811 16.0568 341.689 16.3864 341.67 16.7727H340.307C340.33 16.1629 340.513 15.6288 340.858 15.1705C341.203 14.7083 341.653 14.3485 342.21 14.0909C342.771 13.8333 343.386 13.7045 344.057 13.7045C344.777 13.7045 345.394 13.8504 345.909 14.142C346.424 14.4299 346.82 14.8106 347.097 15.2841C347.373 15.7576 347.511 16.2689 347.511 16.8182C347.511 17.4735 347.339 18.0322 346.994 18.4943C346.653 18.9564 346.189 19.2765 345.602 19.4545V19.5455C346.337 19.6667 346.911 19.9792 347.324 20.483C347.737 20.983 347.943 21.6023 347.943 22.3409C347.943 22.9735 347.771 23.5417 347.426 24.0455C347.085 24.5455 346.619 24.9394 346.028 25.2273C345.438 25.5152 344.765 25.6591 344.011 25.6591ZM360.176 16.7727V18.0227H356.131V25.5H354.79V16.7727H360.176ZM365.226 25.6818C364.438 25.6818 363.747 25.4943 363.152 25.1193C362.561 24.7443 362.099 24.2197 361.766 23.5455C361.436 22.8712 361.271 22.0833 361.271 21.1818C361.271 20.2727 361.436 19.4792 361.766 18.8011C362.099 18.1231 362.561 17.5966 363.152 17.2216C363.747 16.8466 364.438 16.6591 365.226 16.6591C366.014 16.6591 366.703 16.8466 367.294 17.2216C367.889 17.5966 368.351 18.1231 368.68 18.8011C369.014 19.4792 369.18 20.2727 369.18 21.1818C369.18 22.0833 369.014 22.8712 368.68 23.5455C368.351 24.2197 367.889 24.7443 367.294 25.1193C366.703 25.4943 366.014 25.6818 365.226 25.6818ZM365.226 24.4773C365.824 24.4773 366.317 24.3239 366.703 24.017C367.089 23.7102 367.375 23.3068 367.561 22.8068C367.747 22.3068 367.839 21.7652 367.839 21.1818C367.839 20.5985 367.747 20.0549 367.561 19.5511C367.375 19.0473 367.089 18.6402 366.703 18.3295C366.317 18.0189 365.824 17.8636 365.226 17.8636C364.627 17.8636 364.135 18.0189 363.749 18.3295C363.362 18.6402 363.076 19.0473 362.891 19.5511C362.705 20.0549 362.612 20.5985 362.612 21.1818C362.612 21.7652 362.705 22.3068 362.891 22.8068C363.076 23.3068 363.362 23.7102 363.749 24.017C364.135 24.3239 364.627 24.4773 365.226 24.4773ZM370.295 28V24.25H371.023C371.201 24.0644 371.354 23.8636 371.483 23.6477C371.612 23.4318 371.723 23.1761 371.818 22.8807C371.917 22.5814 372 22.2178 372.068 21.7898C372.136 21.358 372.197 20.8371 372.25 20.2273L372.545 16.7727H378.091V24.25H379.432V28H378.091V25.5H371.636V28H370.295ZM372.545 24.25H376.75V18.0227H373.795L373.568 20.2273C373.473 21.1402 373.356 21.9375 373.216 22.6193C373.076 23.3011 372.852 23.8447 372.545 24.25ZM383.78 25.7045C383.227 25.7045 382.725 25.6004 382.274 25.392C381.823 25.1799 381.465 24.875 381.2 24.4773C380.935 24.0758 380.803 23.5909 380.803 23.0227C380.803 22.5227 380.901 22.1174 381.098 21.8068C381.295 21.4924 381.558 21.2462 381.888 21.0682C382.217 20.8902 382.581 20.7576 382.979 20.6705C383.38 20.5795 383.784 20.5076 384.189 20.4545C384.719 20.3864 385.149 20.3352 385.479 20.3011C385.812 20.2633 386.054 20.2008 386.206 20.1136C386.361 20.0265 386.439 19.875 386.439 19.6591V19.6136C386.439 19.053 386.286 18.6174 385.979 18.3068C385.676 17.9962 385.215 17.8409 384.598 17.8409C383.958 17.8409 383.456 17.9811 383.092 18.2614C382.729 18.5417 382.473 18.8409 382.325 19.1591L381.053 18.7045C381.28 18.1742 381.583 17.7614 381.962 17.4659C382.344 17.1667 382.761 16.9583 383.212 16.8409C383.666 16.7197 384.113 16.6591 384.553 16.6591C384.833 16.6591 385.155 16.6932 385.518 16.7614C385.886 16.8258 386.24 16.9602 386.581 17.1648C386.926 17.3693 387.212 17.678 387.439 18.0909C387.666 18.5038 387.78 19.0568 387.78 19.75V25.5H386.439V24.3182H386.371C386.28 24.5076 386.128 24.7102 385.916 24.9261C385.704 25.142 385.422 25.3258 385.07 25.4773C384.717 25.6288 384.287 25.7045 383.78 25.7045ZM383.984 24.5C384.515 24.5 384.962 24.3958 385.325 24.1875C385.693 23.9792 385.969 23.7102 386.155 23.3807C386.344 23.0511 386.439 22.7045 386.439 22.3409V21.1136C386.382 21.1818 386.257 21.2443 386.064 21.3011C385.875 21.3542 385.655 21.4015 385.405 21.4432C385.159 21.4811 384.918 21.5152 384.683 21.5455C384.452 21.572 384.265 21.5947 384.121 21.6136C383.772 21.6591 383.446 21.733 383.143 21.8352C382.844 21.9337 382.602 22.0833 382.416 22.2841C382.234 22.4811 382.143 22.75 382.143 23.0909C382.143 23.5568 382.316 23.9091 382.661 24.1477C383.009 24.3826 383.45 24.5 383.984 24.5Z" fill="#183280"/>
<path d="M409 30.0263V36.5C409 38.1569 407.657 39.5 406 39.5L232 39.5C230.343 39.5 229 38.1569 229 36.5V29.5" stroke="#183280"/>
</svg>
