<svg width="353" height="40" viewBox="0 0 353 40" fill="none" xmlns="http://www.w3.org/2000/svg">
<path d="M1 9.97368V3.5C1 1.84315 2.34315 0.5 4 0.5H129C130.657 0.5 132 1.84315 132 3.5V10.5" stroke="#183280"/>
<path d="M31.1805 28.618C32.8882 26.4808 36.7831 21.301 36.7831 18.3915C36.7831 14.8629 33.9202 12 30.3915 12C26.8629 12 24 14.8629 24 18.3915C24 21.301 27.8948 26.4808 29.6026 28.618C30.012 29.1273 30.771 29.1273 31.1805 28.618ZM30.3915 16.261C30.9566 16.261 31.4985 16.4855 31.898 16.885C32.2976 17.2846 32.5221 17.8265 32.5221 18.3915C32.5221 18.9566 32.2976 19.4985 31.898 19.898C31.4985 20.2976 30.9566 20.5221 30.3915 20.5221C29.8265 20.5221 29.2846 20.2976 28.885 19.898C28.4855 19.4985 28.261 18.9566 28.261 18.3915C28.261 17.8265 28.4855 17.2846 28.885 16.885C29.2846 16.4855 29.8265 16.261 30.3915 16.261Z" fill="#183280"/>
<path d="M45.6747 13.8636H47.3565L51.3111 23.5227H51.4474L55.402 13.8636H57.0838V25.5H55.7656V16.6591H55.652L52.0156 25.5H50.7429L47.1065 16.6591H46.9929V25.5H45.6747V13.8636ZM60.8864 19.9318H63.3864C64.4091 19.9318 65.1913 20.1913 65.733 20.7102C66.2746 21.2292 66.5455 21.8864 66.5455 22.6818C66.5455 23.2045 66.4242 23.6799 66.1818 24.108C65.9394 24.5322 65.5833 24.8712 65.1136 25.125C64.6439 25.375 64.0682 25.5 63.3864 25.5H59.7273V16.7727H61.0682V24.25H63.3864C63.9167 24.25 64.3523 24.1098 64.6932 23.8295C65.0341 23.5492 65.2045 23.1894 65.2045 22.75C65.2045 22.2879 65.0341 21.911 64.6932 21.6193C64.3523 21.3277 63.9167 21.1818 63.3864 21.1818H60.8864V19.9318ZM67.9318 25.5V16.7727H69.2727V25.5H67.9318ZM71.2273 18.0227V16.7727H78.3182V18.0227H75.4545V25.5H74.1136V18.0227H71.2273ZM81.6151 23.5227L85.8196 16.7727H87.3651V25.5H86.0241V18.75L81.8423 25.5H80.2741V16.7727H81.6151V23.5227ZM101.73 24.25L101.571 28H100.185V25.5H99.0483V24.25H101.73ZM89.821 16.7727H91.1619V24.25H94.4574V16.7727H95.7983V24.25H99.0938V16.7727H100.435V25.5H89.821V16.7727ZM105.021 23.5227L109.226 16.7727H110.771V25.5H109.43V18.75L105.249 25.5H103.68V16.7727H105.021V23.5227Z" fill="#183280"/>
<path d="M132 30.0263V36.5C132 38.1569 130.657 39.5 129 39.5L4 39.5C2.34315 39.5 1 38.1569 1 36.5V29.5" stroke="#183280"/>
<path d="M147 9.97368V3.5C147 1.84315 148.343 0.5 150 0.5H349C350.657 0.5 352 1.84315 352 3.5V10.5" stroke="#183280"/>
<path d="M173 12C173.553 12 174 12.4469 174 13V14H178V13C178 12.4469 178.447 12 179 12C179.553 12 180 12.4469 180 13V14H181.5C182.328 14 183 14.6719 183 15.5V17H169V15.5C169 14.6719 169.672 14 170.5 14H172V13C172 12.4469 172.447 12 173 12ZM169 18H183V26.5C183 27.3281 182.328 28 181.5 28H170.5C169.672 28 169 27.3281 169 26.5V18ZM171 20.5V21.5C171 21.775 171.225 22 171.5 22H172.5C172.775 22 173 21.775 173 21.5V20.5C173 20.225 172.775 20 172.5 20H171.5C171.225 20 171 20.225 171 20.5ZM175 20.5V21.5C175 21.775 175.225 22 175.5 22H176.5C176.775 22 177 21.775 177 21.5V20.5C177 20.225 176.775 20 176.5 20H175.5C175.225 20 175 20.225 175 20.5ZM179.5 20C179.225 20 179 20.225 179 20.5V21.5C179 21.775 179.225 22 179.5 22H180.5C180.775 22 181 21.775 181 21.5V20.5C181 20.225 180.775 20 180.5 20H179.5ZM171 24.5V25.5C171 25.775 171.225 26 171.5 26H172.5C172.775 26 173 25.775 173 25.5V24.5C173 24.225 172.775 24 172.5 24H171.5C171.225 24 171 24.225 171 24.5ZM175.5 24C175.225 24 175 24.225 175 24.5V25.5C175 25.775 175.225 26 175.5 26H176.5C176.775 26 177 25.775 177 25.5V24.5C177 24.225 176.775 24 176.5 24H175.5ZM179 24.5V25.5C179 25.775 179.225 26 179.5 26H180.5C180.775 26 181 25.775 181 25.5V24.5C181 24.225 180.775 24 180.5 24H179.5C179.225 24 179 24.225 179 24.5Z" fill="#183280"/>
<path d="M191.487 25.5V13.8636H192.896V19.0455H199.101V13.8636H200.51V25.5H199.101V20.2955H192.896V25.5H191.487ZM206.695 25.6818C205.907 25.6818 205.215 25.4943 204.621 25.1193C204.03 24.7443 203.568 24.2197 203.234 23.5455C202.905 22.8712 202.74 22.0833 202.74 21.1818C202.74 20.2727 202.905 19.4792 203.234 18.8011C203.568 18.1231 204.03 17.5966 204.621 17.2216C205.215 16.8466 205.907 16.6591 206.695 16.6591C207.482 16.6591 208.172 16.8466 208.763 17.2216C209.357 17.5966 209.82 18.1231 210.149 18.8011C210.482 19.4792 210.649 20.2727 210.649 21.1818C210.649 22.0833 210.482 22.8712 210.149 23.5455C209.82 24.2197 209.357 24.7443 208.763 25.1193C208.172 25.4943 207.482 25.6818 206.695 25.6818ZM206.695 24.4773C207.293 24.4773 207.786 24.3239 208.172 24.017C208.558 23.7102 208.844 23.3068 209.03 22.8068C209.215 22.3068 209.308 21.7652 209.308 21.1818C209.308 20.5985 209.215 20.0549 209.03 19.5511C208.844 19.0473 208.558 18.6402 208.172 18.3295C207.786 18.0189 207.293 17.8636 206.695 17.8636C206.096 17.8636 205.604 18.0189 205.217 18.3295C204.831 18.6402 204.545 19.0473 204.359 19.5511C204.174 20.0549 204.081 20.5985 204.081 21.1818C204.081 21.7652 204.174 22.3068 204.359 22.8068C204.545 23.3068 204.831 23.7102 205.217 24.017C205.604 24.3239 206.096 24.4773 206.695 24.4773ZM217.946 25.5V18H215.628C215.105 18 214.694 18.1212 214.395 18.3636C214.096 18.6061 213.946 18.9394 213.946 19.3636C213.946 19.7803 214.08 20.108 214.349 20.3466C214.622 20.5852 214.995 20.7045 215.469 20.7045H218.287V21.9545H215.469C214.878 21.9545 214.368 21.8504 213.94 21.642C213.512 21.4337 213.183 21.1364 212.952 20.75C212.721 20.3598 212.605 19.8977 212.605 19.3636C212.605 18.8258 212.726 18.3636 212.969 17.9773C213.211 17.5909 213.558 17.2936 214.009 17.0852C214.463 16.8769 215.003 16.7727 215.628 16.7727H219.219V25.5H217.946ZM212.128 25.5L214.605 21.1591H216.06L213.582 25.5H212.128ZM228.158 13.5L228.839 14.3182C228.574 14.5758 228.268 14.7557 227.919 14.858C227.571 14.9602 227.177 15.0227 226.737 15.0455C226.298 15.0682 225.809 15.0909 225.271 15.1136C224.665 15.1364 224.163 15.2841 223.766 15.5568C223.368 15.8295 223.061 16.2235 222.845 16.7386C222.629 17.2538 222.491 17.8864 222.43 18.6364H222.544C222.839 18.0909 223.249 17.6894 223.771 17.4318C224.294 17.1742 224.855 17.0455 225.453 17.0455C226.135 17.0455 226.749 17.2045 227.294 17.5227C227.839 17.8409 228.271 18.3125 228.589 18.9375C228.908 19.5625 229.067 20.3333 229.067 21.25C229.067 22.1629 228.904 22.9508 228.578 23.6136C228.256 24.2765 227.804 24.7879 227.22 25.1477C226.641 25.5038 225.961 25.6818 225.18 25.6818C224.4 25.6818 223.716 25.4981 223.129 25.1307C222.542 24.7595 222.086 24.2102 221.76 23.483C221.434 22.7519 221.271 21.8485 221.271 20.7727V19.8409C221.271 17.8977 221.601 16.4242 222.26 15.4205C222.923 14.4167 223.919 13.8977 225.249 13.8636C225.718 13.8485 226.137 13.8447 226.504 13.8523C226.872 13.8598 227.192 13.8428 227.464 13.8011C227.737 13.7595 227.968 13.6591 228.158 13.5ZM225.18 24.4773C225.707 24.4773 226.16 24.3447 226.538 24.0795C226.921 23.8144 227.214 23.4413 227.419 22.9602C227.624 22.4754 227.726 21.9053 227.726 21.25C227.726 20.6136 227.622 20.072 227.413 19.625C227.209 19.178 226.915 18.8371 226.533 18.6023C226.15 18.3674 225.692 18.25 225.158 18.25C224.768 18.25 224.417 18.3163 224.107 18.4489C223.796 18.5814 223.531 18.7765 223.311 19.0341C223.091 19.2917 222.921 19.6061 222.8 19.9773C222.682 20.3485 222.62 20.7727 222.612 21.25C222.612 22.2273 222.841 23.0095 223.3 23.5966C223.758 24.1837 224.385 24.4773 225.18 24.4773ZM231.118 28.7727V16.7727H232.413V18.1591H232.572C232.671 18.0076 232.807 17.8144 232.982 17.5795C233.16 17.3409 233.413 17.1288 233.743 16.9432C234.076 16.7538 234.527 16.6591 235.095 16.6591C235.83 16.6591 236.478 16.8428 237.038 17.2102C237.599 17.5777 238.036 18.0985 238.351 18.7727C238.665 19.447 238.822 20.2424 238.822 21.1591C238.822 22.0833 238.665 22.8845 238.351 23.5625C238.036 24.2367 237.601 24.7595 237.044 25.1307C236.487 25.4981 235.845 25.6818 235.118 25.6818C234.557 25.6818 234.108 25.589 233.771 25.4034C233.434 25.214 233.175 25 232.993 24.7614C232.811 24.5189 232.671 24.3182 232.572 24.1591H232.459V28.7727H231.118ZM232.436 21.1364C232.436 21.7955 232.533 22.3769 232.726 22.8807C232.919 23.3807 233.201 23.7727 233.572 24.0568C233.944 24.3371 234.398 24.4773 234.936 24.4773C235.497 24.4773 235.964 24.3295 236.339 24.0341C236.718 23.7348 237.002 23.3333 237.192 22.8295C237.385 22.322 237.482 21.7576 237.482 21.1364C237.482 20.5227 237.387 19.9697 237.197 19.4773C237.012 18.9811 236.73 18.589 236.351 18.3011C235.976 18.0095 235.504 17.8636 234.936 17.8636C234.391 17.8636 233.932 18.0019 233.561 18.2784C233.19 18.5511 232.91 18.9337 232.72 19.4261C232.531 19.9148 232.436 20.4848 232.436 21.1364ZM242.027 19.9318H244.527C245.55 19.9318 246.332 20.1913 246.874 20.7102C247.415 21.2292 247.686 21.8864 247.686 22.6818C247.686 23.2045 247.565 23.6799 247.322 24.108C247.08 24.5322 246.724 24.8712 246.254 25.125C245.785 25.375 245.209 25.5 244.527 25.5H240.868V16.7727H242.209V24.25H244.527C245.057 24.25 245.493 24.1098 245.834 23.8295C246.175 23.5492 246.345 23.1894 246.345 22.75C246.345 22.2879 246.175 21.911 245.834 21.6193C245.493 21.3277 245.057 21.1818 244.527 21.1818H242.027V19.9318ZM254.205 25.5V24.4773L258.045 20.2727C258.496 19.7803 258.867 19.3523 259.159 18.9886C259.451 18.6212 259.667 18.2765 259.807 17.9545C259.951 17.6288 260.023 17.2879 260.023 16.9318C260.023 16.5227 259.924 16.1686 259.727 15.8693C259.534 15.5701 259.269 15.339 258.932 15.1761C258.595 15.0133 258.216 14.9318 257.795 14.9318C257.348 14.9318 256.958 15.0246 256.625 15.2102C256.295 15.392 256.04 15.6477 255.858 15.9773C255.68 16.3068 255.591 16.6932 255.591 17.1364H254.25C254.25 16.4545 254.407 15.8561 254.722 15.3409C255.036 14.8258 255.464 14.4242 256.006 14.1364C256.551 13.8485 257.163 13.7045 257.841 13.7045C258.523 13.7045 259.127 13.8485 259.653 14.1364C260.18 14.4242 260.593 14.8125 260.892 15.3011C261.191 15.7898 261.341 16.3333 261.341 16.9318C261.341 17.3598 261.263 17.7784 261.108 18.1875C260.956 18.5928 260.691 19.0455 260.312 19.5455C259.938 20.0417 259.417 20.6477 258.75 21.3636L256.136 24.1591V24.25H261.545V25.5H254.205ZM267.688 25.6591C266.831 25.6591 266.102 25.4261 265.5 24.9602C264.898 24.4905 264.438 23.8106 264.119 22.9205C263.801 22.0265 263.642 20.947 263.642 19.6818C263.642 18.4242 263.801 17.3504 264.119 16.4602C264.441 15.5663 264.903 14.8845 265.506 14.4148C266.112 13.9413 266.839 13.7045 267.688 13.7045C268.536 13.7045 269.261 13.9413 269.864 14.4148C270.47 14.8845 270.932 15.5663 271.25 16.4602C271.572 17.3504 271.733 18.4242 271.733 19.6818C271.733 20.947 271.574 22.0265 271.256 22.9205C270.938 23.8106 270.477 24.4905 269.875 24.9602C269.273 25.4261 268.544 25.6591 267.688 25.6591ZM267.688 24.4091C268.536 24.4091 269.195 24 269.665 23.1818C270.134 22.3636 270.369 21.197 270.369 19.6818C270.369 18.6742 270.261 17.8163 270.045 17.108C269.833 16.3996 269.527 15.8598 269.125 15.4886C268.727 15.1174 268.248 14.9318 267.688 14.9318C266.847 14.9318 266.189 15.3466 265.716 16.1761C265.242 17.0019 265.006 18.1705 265.006 19.6818C265.006 20.6894 265.112 21.5455 265.324 22.25C265.536 22.9545 265.841 23.4905 266.239 23.858C266.64 24.2254 267.123 24.4091 267.688 24.4091ZM273.892 25.5V24.4773L277.733 20.2727C278.184 19.7803 278.555 19.3523 278.847 18.9886C279.138 18.6212 279.354 18.2765 279.494 17.9545C279.638 17.6288 279.71 17.2879 279.71 16.9318C279.71 16.5227 279.612 16.1686 279.415 15.8693C279.222 15.5701 278.956 15.339 278.619 15.1761C278.282 15.0133 277.903 14.9318 277.483 14.9318C277.036 14.9318 276.646 15.0246 276.312 15.2102C275.983 15.392 275.727 15.6477 275.545 15.9773C275.367 16.3068 275.278 16.6932 275.278 17.1364H273.938C273.938 16.4545 274.095 15.8561 274.409 15.3409C274.723 14.8258 275.152 14.4242 275.693 14.1364C276.239 13.8485 276.85 13.7045 277.528 13.7045C278.21 13.7045 278.814 13.8485 279.341 14.1364C279.867 14.4242 280.28 14.8125 280.58 15.3011C280.879 15.7898 281.028 16.3333 281.028 16.9318C281.028 17.3598 280.951 17.7784 280.795 18.1875C280.644 18.5928 280.379 19.0455 280 19.5455C279.625 20.0417 279.104 20.6477 278.438 21.3636L275.824 24.1591V24.25H281.233V25.5H273.892ZM283.58 25.5V24.4773L287.42 20.2727C287.871 19.7803 288.242 19.3523 288.534 18.9886C288.826 18.6212 289.042 18.2765 289.182 17.9545C289.326 17.6288 289.398 17.2879 289.398 16.9318C289.398 16.5227 289.299 16.1686 289.102 15.8693C288.909 15.5701 288.644 15.339 288.307 15.1761C287.97 15.0133 287.591 14.9318 287.17 14.9318C286.723 14.9318 286.333 15.0246 286 15.2102C285.67 15.392 285.415 15.6477 285.233 15.9773C285.055 16.3068 284.966 16.6932 284.966 17.1364H283.625C283.625 16.4545 283.782 15.8561 284.097 15.3409C284.411 14.8258 284.839 14.4242 285.381 14.1364C285.926 13.8485 286.538 13.7045 287.216 13.7045C287.898 13.7045 288.502 13.8485 289.028 14.1364C289.555 14.4242 289.968 14.8125 290.267 15.3011C290.566 15.7898 290.716 16.3333 290.716 16.9318C290.716 17.3598 290.638 17.7784 290.483 18.1875C290.331 18.5928 290.066 19.0455 289.688 19.5455C289.312 20.0417 288.792 20.6477 288.125 21.3636L285.511 24.1591V24.25H290.92V25.5H283.58ZM303.176 16.7727V18.0227H299.131V25.5H297.79V16.7727H303.176ZM308.226 25.6818C307.438 25.6818 306.747 25.4943 306.152 25.1193C305.561 24.7443 305.099 24.2197 304.766 23.5455C304.436 22.8712 304.271 22.0833 304.271 21.1818C304.271 20.2727 304.436 19.4792 304.766 18.8011C305.099 18.1231 305.561 17.5966 306.152 17.2216C306.747 16.8466 307.438 16.6591 308.226 16.6591C309.014 16.6591 309.703 16.8466 310.294 17.2216C310.889 17.5966 311.351 18.1231 311.68 18.8011C312.014 19.4792 312.18 20.2727 312.18 21.1818C312.18 22.0833 312.014 22.8712 311.68 23.5455C311.351 24.2197 310.889 24.7443 310.294 25.1193C309.703 25.4943 309.014 25.6818 308.226 25.6818ZM308.226 24.4773C308.824 24.4773 309.317 24.3239 309.703 24.017C310.089 23.7102 310.375 23.3068 310.561 22.8068C310.747 22.3068 310.839 21.7652 310.839 21.1818C310.839 20.5985 310.747 20.0549 310.561 19.5511C310.375 19.0473 310.089 18.6402 309.703 18.3295C309.317 18.0189 308.824 17.8636 308.226 17.8636C307.627 17.8636 307.135 18.0189 306.749 18.3295C306.362 18.6402 306.076 19.0473 305.891 19.5511C305.705 20.0549 305.612 20.5985 305.612 21.1818C305.612 21.7652 305.705 22.3068 305.891 22.8068C306.076 23.3068 306.362 23.7102 306.749 24.017C307.135 24.3239 307.627 24.4773 308.226 24.4773ZM313.295 28V24.25H314.023C314.201 24.0644 314.354 23.8636 314.483 23.6477C314.612 23.4318 314.723 23.1761 314.818 22.8807C314.917 22.5814 315 22.2178 315.068 21.7898C315.136 21.358 315.197 20.8371 315.25 20.2273L315.545 16.7727H321.091V24.25H322.432V28H321.091V25.5H314.636V28H313.295ZM315.545 24.25H319.75V18.0227H316.795L316.568 20.2273C316.473 21.1402 316.356 21.9375 316.216 22.6193C316.076 23.3011 315.852 23.8447 315.545 24.25ZM326.78 25.7045C326.227 25.7045 325.725 25.6004 325.274 25.392C324.823 25.1799 324.465 24.875 324.2 24.4773C323.935 24.0758 323.803 23.5909 323.803 23.0227C323.803 22.5227 323.901 22.1174 324.098 21.8068C324.295 21.4924 324.558 21.2462 324.888 21.0682C325.217 20.8902 325.581 20.7576 325.979 20.6705C326.38 20.5795 326.784 20.5076 327.189 20.4545C327.719 20.3864 328.149 20.3352 328.479 20.3011C328.812 20.2633 329.054 20.2008 329.206 20.1136C329.361 20.0265 329.439 19.875 329.439 19.6591V19.6136C329.439 19.053 329.286 18.6174 328.979 18.3068C328.676 17.9962 328.215 17.8409 327.598 17.8409C326.958 17.8409 326.456 17.9811 326.092 18.2614C325.729 18.5417 325.473 18.8409 325.325 19.1591L324.053 18.7045C324.28 18.1742 324.583 17.7614 324.962 17.4659C325.344 17.1667 325.761 16.9583 326.212 16.8409C326.666 16.7197 327.113 16.6591 327.553 16.6591C327.833 16.6591 328.155 16.6932 328.518 16.7614C328.886 16.8258 329.24 16.9602 329.581 17.1648C329.926 17.3693 330.212 17.678 330.439 18.0909C330.666 18.5038 330.78 19.0568 330.78 19.75V25.5H329.439V24.3182H329.371C329.28 24.5076 329.128 24.7102 328.916 24.9261C328.704 25.142 328.422 25.3258 328.07 25.4773C327.717 25.6288 327.287 25.7045 326.78 25.7045ZM326.984 24.5C327.515 24.5 327.962 24.3958 328.325 24.1875C328.693 23.9792 328.969 23.7102 329.155 23.3807C329.344 23.0511 329.439 22.7045 329.439 22.3409V21.1136C329.382 21.1818 329.257 21.2443 329.064 21.3011C328.875 21.3542 328.655 21.4015 328.405 21.4432C328.159 21.4811 327.918 21.5152 327.683 21.5455C327.452 21.572 327.265 21.5947 327.121 21.6136C326.772 21.6591 326.446 21.733 326.143 21.8352C325.844 21.9337 325.602 22.0833 325.416 22.2841C325.234 22.4811 325.143 22.75 325.143 23.0909C325.143 23.5568 325.316 23.9091 325.661 24.1477C326.009 24.3826 326.45 24.5 326.984 24.5Z" fill="#183280"/>
<path d="M352 30.0263V36.5C352 38.1569 350.657 39.5 349 39.5L150 39.5C148.343 39.5 147 38.1569 147 36.5V29.5" stroke="#183280"/>
</svg>
